# xmcd
#
# Track frame offsets: 
#        150
#        11172
#        44521
#        98385
#        174969
#        193161
#
# Disc length: 2978 seconds
#
# Revision: 0
# Processed by: cddbd v1.5.2PL0 Copyright (c) Steve Scherf et al.
# Submitted via: ExactAudioCopy v0.95b4
#
DISCID=430ba006
DTITLE=The Meters - The Original Meters Reunion Concert
DYEAR=2005
DGENRE=Funk
TTITLE0=Stage Banter
TTITLE1=Be My Lady
TTITLE2=The World -> Welcome To New Orleans
TTITLE3=It Ain't No Use
TTITLE4=Cissy Strut
TTITLE5=Hey Pocky Way
EXTD=
EXTT0=
EXTT1=
EXTT2=
EXTT3=
EXTT4=
EXTT5=
PLAYORDER=
